Coordinates
version=1
nRows=5
nColumns=40
inDegrees=yes
endheader
time	pelvis_tilt	pelvis_list	pelvis_rotation	pelvis_tx	pelvis_ty	pelvis_tz	hip_flexion_r	hip_adduction_r	hip_rotation_r	knee_angle_r	knee_angle_r_beta	ankle_angle_r	subtalar_angle_r	mtp_angle_r	hip_flexion_l	hip_adduction_l	hip_rotation_l	knee_angle_l	knee_angle_l_beta	ankle_angle_l	subtalar_angle_l	mtp_angle_l	lumbar_extension	lumbar_bending	lumbar_rotation	arm_flex_r	arm_add_r	arm_rot_r	elbow_flex_r	pro_sup_r	wrist_flex_r	wrist_dev_r	arm_flex_l	arm_add_l	arm_rot_l	elbow_flex_l	pro_sup_l	wrist_flex_l	wrist_dev_l
1760624568.82768512	      6.77312629	     -1.41317970	      0.33958954	      0.16674559	      0.87673486	     -0.00059356	     80.00000000	     -7.00000000	      0.00000000	     80.00000000	      1.39626340	      0.00000000	      0.00000000	      0.00000000	     80.00000000	     -7.00000000	      0.00000000	     80.00000000	      1.39626340	      0.00000000	      0.00000000	      0.00000000	    -12.65933766	     -0.31155637	      1.94473574	      3.55508573	     -5.76549283	      9.77280256	      0.00000000	      0.00000000	    -15.28679685	    -13.40824948	      3.56878266	     -6.15153558	     13.34074402	      0.00000000	      6.85178096	     -4.33289290	    -11.13615519
1760624568.83768511	      6.77304510	     -1.41216859	      0.33957867	      0.16671768	      0.87671560	     -0.00056765	     80.00000000	     -7.00000000	      0.00000000	     80.00000000	      1.39626340	      0.00000000	      0.00000000	      0.00000000	     80.00000000	     -7.00000000	      0.00000000	     80.00000000	      1.39626340	      0.00000000	      0.00000000	      0.00000000	    -12.65978563	     -0.31062616	      1.94521741	      3.55421545	     -5.76458525	      9.77288905	      0.00000000	      0.00000000	    -15.28668546	    -13.40822468	      3.56875964	     -6.15050213	     13.34079129	      0.00000000	      6.85180961	     -4.33264406	    -11.13617901
1760624568.84768510	      6.76747509	     -1.40778440	      0.34076142	      0.16667142	      0.87673874	     -0.00056661	     80.00000000	     -7.00000000	      0.00000000	     80.00000000	      1.39626340	      0.00000000	      0.00000000	      0.00000000	     80.00000000	     -7.00000000	      0.00000000	     80.00000000	      1.39626340	      0.00000000	      0.00000000	      0.00000000	    -12.67036005	     -0.30582341	      1.96178659	      3.53907704	     -5.73862390	      9.77667541	      0.00000000	      0.00000000	    -15.28278348	    -13.40762097	      3.57239675	     -6.11290704	     13.34302625	      0.00000000	      6.85306052	     -4.32419860	    -11.13748076
1760624568.85768509	      6.76817792	     -1.40718905	      0.34078667	      0.16664165	      0.87669089	     -0.00055240	     80.00000000	     -7.00000000	      0.00000000	     80.00000000	      1.39626340	      0.00000000	      0.00000000	      0.00000000	     80.00000000	     -7.00000000	      0.00000000	     80.00000000	      1.39626340	      0.00000000	      0.00000000	      0.00000000	    -12.67026144	     -0.30526852	      1.96227443	      3.53865957	     -5.73865171	      9.77683150	      0.00000000	      0.00000000	    -15.28266130	    -13.40762102	      3.57236291	     -6.11270988	     13.34311529	      0.00000000	      6.85311495	     -4.32395711	    -11.13754126
1760624568.86768508	      6.76833229	     -1.40625772	      0.34082894	      0.16661905	      0.87667697	     -0.00052979	     80.00000000	     -7.00000000	      0.00000000	     80.00000000	      1.39626340	      0.00000000	      0.00000000	      0.00000000	     80.00000000	     -7.00000000	      0.00000000	     80.00000000	      1.39626340	      0.00000000	      0.00000000	      0.00000000	    -12.67047313	     -0.30442613	      1.96277851	      3.53814878	     -5.73839175	      9.77696986	      0.00000000	      0.00000000	    -15.28254252	    -13.40761310	      3.57215559	     -6.11219882	     13.34317940	      0.00000000	      6.85315569	     -4.32371784	    -11.13759083
